<mxfile host="app.diagrams.net" modified="2021-03-13T15:02:42.570Z" agent="5.0 (Macintosh; Intel Mac OS X 10_14_3) AppleWebKit/537.36 (KHTML, like Gecko) Chrome/89.0.4389.82 Safari/537.36" etag="DwMdHnr7iE_XwsMTzAJu" version="14.4.7" type="github">
  <diagram id="3228e29e-7158-1315-38df-8450db1d8a1d" name="Page-1">
    <mxGraphModel dx="902" dy="838" grid="1" gridSize="10" guides="1" tooltips="1" connect="1" arrows="1" fold="1" page="1" pageScale="1" pageWidth="1500" pageHeight="800" background="#ffffff" math="0" shadow="1">
      <root>
        <mxCell id="0" />
        <mxCell id="1" parent="0" />
        <mxCell id="FyYvvIjHZ3Y8gI8X0XbX-7" value="" style="rounded=1;whiteSpace=wrap;html=1;fillColor=none;dashed=1;strokeWidth=5;strokeColor=#F19C99;" vertex="1" parent="1">
          <mxGeometry x="273.36" y="210" width="665.27" height="295" as="geometry" />
        </mxCell>
        <mxCell id="TgtEdNx8PUhki9_reYf2-21545" value="李东" style="rounded=1;strokeColor=#b85450;fontSize=50;fontFamily=Helvetica;fillColor=#FDD276;labelBackgroundColor=none;labelBorderColor=none;whiteSpace=wrap;html=1;" parent="1" vertex="1">
          <mxGeometry x="410" y="86.5" width="120" height="77" as="geometry" />
        </mxCell>
        <mxCell id="TgtEdNx8PUhki9_reYf2-21546" value="亚健康终结者" style="rounded=1;strokeColor=#457B9D;fontSize=50;fontFamily=Helvetica;fillColor=#4A919B;labelBackgroundColor=none;labelBorderColor=none;whiteSpace=wrap;html=1;" parent="1" vertex="1">
          <mxGeometry x="530" y="86.5" width="330" height="77" as="geometry" />
        </mxCell>
        <mxCell id="QOvhmwXTaC0TyrBMlb9O-1" value="李东" style="rounded=1;strokeColor=#b85450;fontSize=50;fontFamily=Helvetica;fillColor=#FDD276;labelBackgroundColor=none;labelBorderColor=none;whiteSpace=wrap;html=1;" parent="1" vertex="1">
          <mxGeometry x="296" y="385" width="120" height="77" as="geometry" />
        </mxCell>
        <mxCell id="QOvhmwXTaC0TyrBMlb9O-2" value="亚健" style="rounded=1;strokeColor=#457B9D;fontSize=50;fontFamily=Helvetica;fillColor=#4A919B;labelBackgroundColor=none;labelBorderColor=none;whiteSpace=wrap;html=1;" parent="1" vertex="1">
          <mxGeometry x="446" y="385" width="140" height="77" as="geometry" />
        </mxCell>
        <mxCell id="QOvhmwXTaC0TyrBMlb9O-3" value="康终" style="rounded=1;strokeColor=#b85450;fontSize=50;fontFamily=Helvetica;fillColor=#FDD276;labelBackgroundColor=none;labelBorderColor=none;whiteSpace=wrap;html=1;" parent="1" vertex="1">
          <mxGeometry x="616" y="385" width="120" height="77" as="geometry" />
        </mxCell>
        <mxCell id="QOvhmwXTaC0TyrBMlb9O-4" value="结者" style="rounded=1;strokeColor=#457B9D;fontSize=50;fontFamily=Helvetica;fillColor=#4A919B;labelBackgroundColor=none;labelBorderColor=none;whiteSpace=wrap;html=1;" parent="1" vertex="1">
          <mxGeometry x="776" y="385" width="140" height="77" as="geometry" />
        </mxCell>
        <mxCell id="QOvhmwXTaC0TyrBMlb9O-5" value="" style="shape=singleArrow;direction=south;whiteSpace=wrap;html=1;fillColor=#fff2cc;strokeColor=#d6b656;" parent="1" vertex="1">
          <mxGeometry x="562" y="230" width="88" height="125" as="geometry" />
        </mxCell>
        <mxCell id="QOvhmwXTaC0TyrBMlb9O-7" value="&lt;font style=&quot;font-size: 50px&quot;&gt;分包&lt;/font&gt;" style="text;html=1;strokeColor=none;fillColor=none;align=center;verticalAlign=middle;whiteSpace=wrap;rounded=0;" parent="1" vertex="1">
          <mxGeometry x="632" y="270" width="150" height="20" as="geometry" />
        </mxCell>
        <mxCell id="QOvhmwXTaC0TyrBMlb9O-9" value="" style="fontColor=#0066CC;verticalAlign=top;verticalLabelPosition=bottom;labelPosition=center;align=center;html=1;outlineConnect=0;fillColor=#CCCCCC;strokeColor=#6881B3;gradientColor=none;gradientDirection=north;strokeWidth=2;shape=mxgraph.networks.mobile;" parent="1" vertex="1">
          <mxGeometry x="90" y="50" width="75" height="150" as="geometry" />
        </mxCell>
        <mxCell id="QOvhmwXTaC0TyrBMlb9O-10" value="" style="html=1;outlineConnect=0;fillColor=#CCCCCC;strokeColor=#6881B3;gradientColor=none;gradientDirection=north;strokeWidth=2;shape=mxgraph.networks.cloud;fontColor=#ffffff;" parent="1" vertex="1">
          <mxGeometry x="495" y="660" width="216" height="120" as="geometry" />
        </mxCell>
        <mxCell id="QOvhmwXTaC0TyrBMlb9O-20" value="" style="shape=singleArrow;direction=east;whiteSpace=wrap;html=1;fillColor=#fff2cc;strokeColor=#d6b656;" parent="1" vertex="1">
          <mxGeometry x="210" y="79" width="163.33" height="98" as="geometry" />
        </mxCell>
        <mxCell id="QOvhmwXTaC0TyrBMlb9O-21" value="&lt;font style=&quot;font-size: 50px&quot;&gt;A&lt;/font&gt;" style="text;html=1;strokeColor=none;fillColor=none;align=center;verticalAlign=middle;whiteSpace=wrap;rounded=0;" parent="1" vertex="1">
          <mxGeometry x="107.5" y="121" width="40" height="20" as="geometry" />
        </mxCell>
        <mxCell id="QOvhmwXTaC0TyrBMlb9O-24" value="&lt;font style=&quot;font-size: 60px&quot;&gt;网络&lt;/font&gt;" style="text;html=1;strokeColor=none;fillColor=none;align=center;verticalAlign=middle;whiteSpace=wrap;rounded=0;" parent="1" vertex="1">
          <mxGeometry x="508.5" y="730" width="189" height="24.5" as="geometry" />
        </mxCell>
        <mxCell id="QOvhmwXTaC0TyrBMlb9O-25" value="" style="shape=singleArrow;direction=south;whiteSpace=wrap;html=1;fillColor=#fff2cc;strokeColor=#d6b656;" parent="1" vertex="1">
          <mxGeometry x="567" y="530" width="78" height="130" as="geometry" />
        </mxCell>
        <mxCell id="QOvhmwXTaC0TyrBMlb9O-26" value="&lt;font style=&quot;font-size: 50px&quot;&gt;发到网络&lt;/font&gt;" style="text;html=1;strokeColor=none;fillColor=none;align=center;verticalAlign=middle;whiteSpace=wrap;rounded=0;" parent="1" vertex="1">
          <mxGeometry x="632" y="560" width="273.5" height="20" as="geometry" />
        </mxCell>
        <mxCell id="FyYvvIjHZ3Y8gI8X0XbX-3" value="" style="rounded=1;whiteSpace=wrap;html=1;fillColor=none;dashed=1;strokeWidth=5;strokeColor=#9AC7BF;" vertex="1" parent="1">
          <mxGeometry x="390" y="50" width="490" height="140" as="geometry" />
        </mxCell>
        <mxCell id="FyYvvIjHZ3Y8gI8X0XbX-5" value="&lt;font style=&quot;font-size: 50px&quot;&gt;应用层&lt;/font&gt;" style="rounded=1;whiteSpace=wrap;html=1;dashed=1;strokeWidth=5;fontColor=none;fillColor=#9AC7BF;strokeColor=#9AC7BF;" vertex="1" parent="1">
          <mxGeometry x="1030" y="50" width="290" height="136" as="geometry" />
        </mxCell>
        <mxCell id="FyYvvIjHZ3Y8gI8X0XbX-6" value="&lt;font style=&quot;font-size: 50px&quot;&gt;传输层&lt;/font&gt;" style="rounded=1;whiteSpace=wrap;html=1;dashed=1;strokeWidth=5;fontColor=none;fillColor=#F19C99;strokeColor=#F19C99;" vertex="1" parent="1">
          <mxGeometry x="1030" y="216" width="290" height="80" as="geometry" />
        </mxCell>
        <mxCell id="FyYvvIjHZ3Y8gI8X0XbX-8" value="&lt;span style=&quot;font-size: 50px&quot;&gt;网络层&lt;/span&gt;" style="rounded=1;whiteSpace=wrap;html=1;dashed=1;strokeWidth=5;fontColor=none;fillColor=#F19C99;strokeColor=#F19C99;" vertex="1" parent="1">
          <mxGeometry x="1030" y="318.5" width="290" height="70" as="geometry" />
        </mxCell>
        <mxCell id="FyYvvIjHZ3Y8gI8X0XbX-9" value="&lt;span style=&quot;font-size: 50px&quot;&gt;网络接口层&lt;/span&gt;" style="rounded=1;whiteSpace=wrap;html=1;dashed=1;strokeWidth=5;fontColor=none;fillColor=#F19C99;strokeColor=#F19C99;" vertex="1" parent="1">
          <mxGeometry x="1030" y="416" width="290" height="80" as="geometry" />
        </mxCell>
      </root>
    </mxGraphModel>
  </diagram>
</mxfile>
